PathFileType	4	(X/Y/Z)	Static_1_OpenSim.trc																																																																																																																						
DataRate	CameraRate	NumFrames	NumMarkers	Units	OrigDataRate	OrigDataStartFrame	OrigNumFrames																																																																																																																		
100	100	4	40	mm	100	78	619																																																																																																																		
Frame#	Time	R.ASIS			R.PSIS			S2			L.PSIS			L.ASIS			R.TH1			R.TH2			R.TH3			R.MKnee			R.Knee			R.SH1			R.SH2			R.SH3			R.SH4			R.Ankle			R.MAnkle			R.Heel			R.MT5			R.MT1			L.TH1			L.TH2			L.TH3			L.TH4			L.MKnee			L.Knee			L.SH1			L.SH2			L.SH3			L.Ankle			L.MAnkle			L.Heel			L.MT5			L.MT1			R.Acr			L.Acr			C7			T10			Clav			Sternum			R.Back		
		X1	Y1	Z1	X2	Y2	Z2	X3	Y3	Z3	X4	Y4	Z4	X5	Y5	Z5	X6	Y6	Z6	X7	Y7	Z7	X8	Y8	Z8	X9	Y9	Z9	X10	Y10	Z10	X11	Y11	Z11	X12	Y12	Z12	X13	Y13	Z13	X14	Y14	Z14	X15	Y15	Z15	X16	Y16	Z16	X17	Y17	Z17	X18	Y18	Z18	X19	Y19	Z19	X20	Y20	Z20	X21	Y21	Z21	X22	Y22	Z22	X23	Y23	Z23	X24	Y24	Z24	X25	Y25	Z25	X26	Y26	Z26	X27	Y27	Z27	X28	Y28	Z28	X29	Y29	Z29	X30	Y30	Z30	X31	Y31	Z31	X32	Y32	Z32	X33	Y33	Z33	X34	Y34	Z34	X35	Y35	Z35	X36	Y36	Z36	X37	Y37	Z37	X38	Y38	Z38	X39	Y39	Z39	X40	Y40	Z40
78	0.77	900.1699	1070.0361	-433.2632	693.1126	1080.1642	-535.1711	684.6593	1077.6779	-580.9988	698.4586	1082.8365	-631.6004	897.9626	1067.1439	-725.6081	856.8264	737.7101	-398.6047	775.2769	738.0789	-395.458	773.9161	628.7277	-404.2053	811.0424	501.7868	-519.7003	792.3921	513.0837	-406.4803	788.8056	350.3989	-391.2494	791.7879	238.7427	-402.1006	706.6752	350.758	-399.5455	710.6268	237.0225	-401.5925	725.4102	78.0033	-402.1535	789.5916	92.9258	-480.2272	685.926	37.197	-474.5727	823.8346	37.9289	-335.9771	898.1528	39.6066	-404.246	877.8306	765.7172	-753.0037	863.5089	658.179	-750.4473	794.6998	772.8041	-765.3793	783.7838	663.4984	-755.1513	825.2426	500.7921	-643.3485	813.9432	518.351	-751.4227	799.9291	392.7226	-782.6621	718.0354	399.7494	-772.6936	711.6999	290.1449	-774.8504	752.3976	83.8927	-797.4723	798.0859	91.5709	-703.7753	696.4542	43.7583	-734.8771	855.0218	33.1123	-833.413	910.9672	45.1748	-741.4636	813.74	1488.1166	-430.374	797.8647	1478.0749	-728.7914	761.9013	1505.1694	-580.4963	748.9785	1179.7052	-578.7596	904.0076	1418.8378	-583.1919	939.2206	1274.911	-572.8126	685.5264	1402.8103	-500.9301
79	0.78	900.1797	1070.0297	-433.2558	693.1493	1080.1537	-535.2186	684.6948	1077.6677	-581.0489	698.5073	1082.8383	-631.6505	898.0433	1067.1487	-725.6053	856.8469	737.6344	-398.6706	775.3185	738.0644	-395.5009	773.9823	628.7062	-404.2369	811.1383	501.7714	-519.726	792.471	513.0706	-406.5017	788.8866	350.3859	-391.2748	791.8385	238.7358	-402.1368	706.7419	350.7506	-399.5668	710.6159	237.047	-401.5458	725.416	78.0114	-402.155	789.6014	92.9106	-480.2454	685.9316	37.2013	-474.5758	823.8347	37.9277	-335.9756	898.1436	39.5987	-404.2432	877.8176	765.7186	-752.9369	863.5674	658.1818	-750.4605	794.785	772.8216	-765.4124	783.8465	663.5195	-755.1915	825.2753	500.8041	-643.3522	813.9708	518.3601	-751.4445	799.9416	392.7289	-782.6824	718.0503	399.7624	-772.7188	711.7078	290.1636	-774.8697	752.4006	83.8947	-797.4799	798.1117	91.5756	-703.7871	696.4533	43.7638	-734.8809	855.019	33.1105	-833.4179	910.9576	45.1765	-741.4633	813.7529	1488.1384	-430.4223	797.8804	1478.0475	-728.814	761.915	1505.1615	-580.5306	749.0677	1179.7036	-578.7754	904.0156	1418.8206	-583.2278	939.2007	1274.8837	-572.7966	685.5469	1402.8224	-500.9705
80	0.79	900.1913	1070.0244	-433.2486	693.1915	1080.1381	-535.2621	684.7264	1077.6534	-581.0952	698.5535	1082.8368	-631.699	898.114	1067.1547	-725.6054	856.8764	737.5527	-398.7417	775.3674	738.0499	-395.537	774.0635	628.6818	-404.2579	811.2403	501.7549	-519.7514	792.5631	513.0576	-406.5232	788.9777	350.3737	-391.3009	791.8932	238.7333	-402.1838	706.8103	350.746	-399.5819	710.6004	237.0743	-401.4844	725.4212	78.0188	-402.158	789.6195	92.9027	-480.2702	685.937	37.2062	-474.5778	823.8344	37.9278	-335.9747	898.1369	39.5898	-404.2458	877.7962	765.7233	-752.8697	863.6204	658.1852	-750.475	794.8651	772.838	-765.4476	783.903	663.5389	-755.2292	825.3074	500.8174	-643.3543	813.9954	518.3693	-751.4651	799.9521	392.7345	-782.7004	718.0639	399.7723	-772.74	711.7143	290.1801	-774.8855	752.4026	83.8972	-797.4855	798.1393	91.5798	-703.7978	696.4517	43.7673	-734.8846	855.0151	33.1104	-833.4227	910.9581	45.1776	-741.4658	813.7648	1488.1617	-430.4651	797.8942	1478.0159	-728.8343	761.9258	1505.1488	-580.5597	749.1572	1179.6986	-578.7864	904.0206	1418.8005	-583.2542	939.1767	1274.8531	-572.7734	685.5648	1402.8329	-501.0031
81	0.8	900.2068	1070.0199	-433.2431	693.2393	1080.1165	-535.3007	684.7534	1077.6349	-581.1365	698.5958	1082.8307	-631.7434	898.1721	1067.1614	-725.6096	856.9163	737.4695	-398.8154	775.4222	738.0367	-395.5651	774.1583	628.6553	-404.2625	811.3441	501.7378	-519.7759	792.6647	513.0463	-406.5442	789.0742	350.3641	-391.3266	791.949	238.737	-402.2416	706.8741	350.7467	-399.5907	710.5796	237.1032	-401.4093	725.4257	78.0248	-402.1614	789.6489	92.9056	-480.3012	685.9419	37.2103	-474.5789	823.8338	37.9291	-335.9743	898.1325	39.5803	-404.2529	877.7773	765.731	-752.8152	863.6674	658.1882	-750.4911	794.9377	772.8511	-765.4847	783.9524	663.5532	-755.2637	825.3388	500.8309	-643.356	814.018	518.3767	-751.4842	799.9614	392.7383	-782.7155	718.0776	399.7787	-772.7558	711.7206	290.1928	-774.8961	752.4036	83.899	-797.4881	798.1676	91.5827	-703.8068	696.4512	43.7679	-734.8879	855.0107	33.1113	-833.4271	910.9608	45.179	-741.468	813.7743	1488.1849	-430.5014	797.9043	1477.9794	-728.8533	761.9332	1505.1312	-580.5842	749.2476	1179.6898	-578.7916	904.0218	1418.7773	-583.2702	939.1504	1274.8208	-572.7436	685.5789	1402.8387	-501.028
